<svg xmlns:dc="http://purl.org/dc/elements/1.1/" xmlns:cc="http://creativecommons.org/ns#" xmlns:rdf="http://www.w3.org/1999/02/22-rdf-syntax-ns#" xmlns:svg="http://www.w3.org/2000/svg" xmlns="http://www.w3.org/2000/svg" xmlns:sodipodi="http://sodipodi.sourceforge.net/DTD/sodipodi-0.dtd" xmlns:inkscape="http://www.inkscape.org/namespaces/inkscape" viewBox="0 0 48 48" version="1.1" x="0px" y="0px" fill="#ffffff"><g transform="translate(0,-1004.3622)"><path style="" d="m 24,1004.3622 a 23.999998,23.999998 0 0 0 -24,24 23.999998,23.999998 0 0 0 24,24 23.999998,23.999998 0 0 0 24,-24 23.999998,23.999998 0 0 0 -24,-24 z m -6.5,12 0.002,0 c 0.27085,0 0.5,0.2251 0.5,0.5547 0,0.3126 -0.02148,0.5299 -0.02148,1.0058 4.81e-4,0.2547 0.192222,0.4683 0.445312,0.4961 3.20867,0.354 5.576172,2.4823 5.576172,4.9434 0,0.5626 -0.43735,1 -1,1 l -10.999999,0 c -0.56265,0 -1,-0.4374 -1,-1 0,-2.3928 2.233877,-4.4701 5.310546,-4.9102 l 0.0039,0 c 0.0858,-0.013 0.172656,-0.024 0.259765,-0.033 0.25914,-0.027 0.453776,-0.2492 0.447266,-0.5097 -0.009,-0.3395 -0.04064,-0.6896 -0.02344,-0.961 0.001,-0.011 0.002,-0.022 0.002,-0.033 -9e-5,-0.3283 0.228417,-0.551 0.497957,-0.5527 z m 16.654297,8.2168 c 0.0644,0.01 0.126967,0.027 0.185547,0.061 l 0.002,0 c 0.23456,0.1355 0.32103,0.4431 0.15625,0.7286 -0.15634,0.2707 -0.283505,0.4491 -0.521485,0.8613 -0.12711,0.2205 -0.0683,0.5014 0.136719,0.6523 2.6018,1.9109 3.587992,4.937 2.357422,7.0684 -0.28132,0.4873 -0.877964,0.6485 -1.365234,0.3672 l -9.525391,-5.5 c -0.48727,-0.2813 -0.648518,-0.8799 -0.367187,-1.3672 1.19642,-2.0723 4.170157,-2.7529 7.054687,-1.5957 l 0.0039,0 c 0.081,0.032 0.160205,0.066 0.240235,0.1016 0.23846,0.1058 0.518258,0.011 0.642578,-0.2188 0.16196,-0.2985 0.310367,-0.6172 0.460937,-0.8437 0.006,-0.01 0.01198,-0.018 0.01758,-0.027 0.12329,-0.2135 0.328205,-0.3117 0.521485,-0.291 z m -22.080078,0.7832 10.857421,0 c 0.30903,2.7254 -0.676188,5.4389 -2.480469,6.9023 -0.503979,0.4058 -1.051936,0.7015 -1.623046,0.8809 l -0.289063,0.092 -0.05273,0.2988 c -0.0852,0.4808 -0.496185,0.8241 -0.984375,0.8243 -0.48818,-2e-4 -0.899205,-0.3435 -0.984375,-0.8243 l -0.05273,-0.2988 -0.291016,-0.092 c -0.6211,-0.1948 -1.215046,-0.5271 -1.753906,-0.9883 l -0.002,0 c -1.728541,-1.4926 -2.643541,-4.1467 -2.343711,-6.7929 z m 1.398437,1 c -0.29517,0.014 -0.513713,0.2799 -0.470703,0.5723 0.24929,1.8767 1.090588,3.6063 2.429688,4.7597 0.5065,0.4534 1.176053,-0.3244 0.652343,-0.7578 -1.11911,-0.9639 -1.870877,-2.4715 -2.091796,-4.1347 -0.0315,-0.2599 -0.258022,-0.4516 -0.519532,-0.4395 z m 11.669922,3.3594 9.402344,5.4277 c -1.09489,2.515 -3.305259,4.3729 -5.59961,4.7383 -0.639319,0.099 -1.261423,0.081 -1.845703,-0.049 l -0.296875,-0.064 -0.195312,0.2324 c -0.31366,0.3732 -0.841142,0.4653 -1.263672,0.2227 -0.422731,-0.2442 -0.608016,-0.7481 -0.441407,-1.207 l 0.103516,-0.2872 -0.205078,-0.2226 c -0.44071,-0.4794 -0.789301,-1.0652 -1.025391,-1.7344 l 0,0 c -0.751079,-2.1571 -0.215892,-4.9127 1.367188,-7.0547 z m 0.46875,1.5097 c -0.20042,0.01 -0.378765,0.1283 -0.453125,0.3145 -0.72248,1.75 -0.85836,3.6714 -0.275391,5.3398 0.220051,0.6302 1.165363,0.3002 0.945313,-0.33 -0.4872,-1.3944 -0.384421,-3.0761 0.255859,-4.627 0.14403,-0.3352 -0.107896,-0.7069 -0.472656,-0.6973 z" fill-opacity="1" fill-rule="evenodd" stroke="none"/></g></svg>
