<svg version="1.0" xmlns="http://www.w3.org/2000/svg"
     viewBox="0 0 400.000000 231.000000"
     preserveAspectRatio="xMidYMid meet" fill="#ffffff">
  <g transform="translate(0.000000,231.000000) scale(0.100000,-0.100000)"
     stroke="none">
    <path d="M3170 1770 c0 -5 -7 -10 -15 -10 -8 0 -25 -10 -37 -22 -32 -32 -65
             -48 -100 -48 -23 0 -31 -6 -40 -30 -7 -22 -19 -33 -39 -37 -15 -3 -45 -19 -66
             -37 -58 -47 -96 -72 -123 -81 -14 -4 -31 -16 -38 -26 -18 -26 -52 -25 -45 1 3
             11 9 20 14 20 5 0 9 11 9 24 0 35 19 45 68 36 23 -4 44 -5 46 -1 2 3 7 34 11
             67 l7 62 -64 11 c-295 51 -521 -51 -599 -269 -20 -54 -24 -85 -24 -180 0 -107
             -1 -115 -22 -125 -12 -6 -36 -26 -54 -43 -19 -18 -44 -35 -56 -38 -13 -4 -23
             -12 -23 -19 0 -18 -37 -48 -49 -40 -8 4 -11 120 -11 356 l0 349 -85 0 -85 0 0
             -159 c0 -94 -4 -162 -10 -166 -5 -3 -92 -6 -192 -6 l-183 0 -3 166 -2 165 -90
             0 -90 0 0 -415 0 -415 90 0 90 0 0 180 0 180 193 -2 192 -3 3 -175 c1 -96 7
             -179 12 -184 16 -16 12 -23 -20 -36 -17 -7 -34 -18 -38 -24 -4 -7 -22 -22 -39
             -35 -32 -21 -44 -51 -23 -51 6 0 21 9 33 21 12 11 50 34 85 50 34 17 62 34 62
             39 0 10 57 40 78 40 8 0 23 11 34 25 11 14 26 25 34 25 8 0 37 16 64 35 77 54
             96 45 65 -28 -8 -20 -15 -41 -15 -47 0 -18 27 -10 65 20 21 16 43 30 50 30 7
             0 15 9 18 20 7 29 28 25 88 -16 61 -41 81 -50 157 -70 64 -17 211 -18 300 -3
             l64 11 -7 62 c-4 33 -10 64 -14 68 -3 4 -37 0 -76 -8 -128 -28 -271 0 -330 66
             -17 19 -17 21 0 40 10 11 21 20 25 20 4 0 29 21 56 46 27 26 65 59 84 73 19
             14 95 75 168 134 73 60 143 114 157 121 13 7 39 28 57 47 l33 34 5 -350 5
             -350 83 -3 82 -3 0 326 c0 182 4 325 9 325 5 0 16 -24 26 -52 9 -29 73 -165
             143 -303 69 -137 130 -260 136 -272 11 -22 17 -23 134 -23 l122 0 0 415 0 415
             -80 0 -80 0 0 -332 c0 -370 0 -370 -59 -223 -18 44 -85 186 -150 315 l-119
             235 -38 5 c-49 7 -52 21 -9 44 27 15 32 22 24 33 -13 15 -39 18 -39 3z m-516
             -198 c3 -5 -14 -21 -37 -35 -23 -15 -70 -53 -104 -85 -35 -32 -75 -65 -90 -73
             -16 -8 -36 -24 -46 -37 -10 -12 -28 -27 -38 -33 -20 -10 -20 -8 -14 38 15 103
             80 180 180 215 52 18 140 24 149 10z m151 -104 c-27 -24 -60 -52 -74 -63 -14
             -10 -28 -22 -31 -25 -3 -3 -63 -53 -135 -110 -71 -58 -192 -155 -267 -217 -76
             -62 -140 -113 -143 -113 -7 0 -6 46 2 54 4 3 12 22 19 42 15 43 17 43 -96 -25
             -87 -53 -118 -54 -58 -2 18 16 112 93 208 171 293 236 352 284 366 298 13 13
             34 16 34 6 0 -3 -14 -33 -31 -65 -18 -33 -30 -61 -28 -64 3 -2 60 32 129 76
             136 87 179 102 105 37z"/>
    <path d="M443 1703 l-33 -4 0 -420 0 -420 88 3 87 3 3 157 3 158 77 -1 c133
             -2 240 55 292 157 21 40 25 63 25 131 0 74 -3 85 -30 124 -66 94 -140 120
             -339 117 -78 0 -156 -3 -173 -5z m305 -143 c34 -21 62 -72 62 -112 0 -13 -9
             -42 -19 -65 -25 -55 -64 -75 -139 -71 l-57 3 -3 119 c-1 66 0 126 2 133 9 22
             115 17 154 -7z"/>
  </g>
</svg>
